<?xml version="1.0" standalone="no"?>
<!DOCTYPE svg PUBLIC "-//W3C//DTD SVG 20010904//EN"
 "http://www.w3.org/TR/2001/REC-SVG-20010904/DTD/svg10.dtd">
<svg version="1.0" xmlns="http://www.w3.org/2000/svg"
 width="93.000000pt" height="93.000000pt" viewBox="0 0 93.000000 93.000000"
 preserveAspectRatio="xMidYMid meet">
<metadata>
Created by potrace 1.11, written by Peter Selinger 2001-2013
</metadata>
<g transform="translate(0.000000,93.000000) scale(0.100000,-0.100000)"
fill="#000000" stroke="none">
<path d="M483 817 c-88 -32 -193 -144 -193 -206 0 -27 -12 -26 -77 5 -48 24
-133 104 -133 125 0 5 -7 9 -15 9 -8 0 -14 -3 -13 -7 1 -5 -8 -45 -20 -91 -25
-91 -35 -247 -19 -322 5 -25 9 -51 10 -57 0 -7 4 -13 7 -13 4 0 13 -14 20 -30
17 -40 85 -86 152 -103 55 -14 477 -17 528 -4 79 21 161 50 166 59 8 12 -5 10
-121 -21 -76 -20 -269 -28 -294 -12 -11 7 -5 15 25 34 50 32 86 66 102 97 13
26 23 140 13 140 -4 0 -28 45 -55 101 -38 77 -50 113 -52 157 -1 31 0 61 4 66
3 6 7 17 8 24 2 8 10 22 18 31 9 10 16 21 16 24 0 10 -41 7 -77 -6z"/>
</g>
</svg>
